<?xml version="1.0" encoding="UTF-8" standalone="no"?>
<svg
   height="500.34"
   width="500.34"
   version="1.1"
   id="svg8"
   sodipodi:docname="Japan_road_sign_208.svg"
   inkscape:version="1.1 (c68e22c387, 2021-05-23)"
   xmlns:inkscape="http://www.inkscape.org/namespaces/inkscape"
   xmlns:sodipodi="http://sodipodi.sourceforge.net/DTD/sodipodi-0.dtd"
   xmlns="http://www.w3.org/2000/svg"
   xmlns:svg="http://www.w3.org/2000/svg">
  <defs
     id="defs12" />
  <sodipodi:namedview
     id="namedview10"
     pagecolor="#ffffff"
     bordercolor="#666666"
     borderopacity="1.0"
     inkscape:pageshadow="2"
     inkscape:pageopacity="0.0"
     inkscape:pagecheckerboard="0"
     showgrid="false"
     inkscape:zoom="1.0392933"
     inkscape:cx="225.63409"
     inkscape:cy="224.6719"
     inkscape:window-width="1366"
     inkscape:window-height="705"
     inkscape:window-x="-8"
     inkscape:window-y="-8"
     inkscape:window-maximized="1"
     inkscape:current-layer="svg8" />
  <path
     d="m496.89 242.34c4.332 4.332 4.332 11.339 0 15.671l-238.88 238.88c-4.332 4.332-11.339 4.332-15.671 0l-238.89-238.88c-4.332-4.332-4.332-11.339-0.00001-15.671l238.89-238.89c4.332-4.3319 11.339-4.3319 15.671 0.00001z"
     fill="#fcdc0f"
     id="path2" />
  <path
     d="m250.17 12.232-237.94 237.94 237.94 237.94 237.94-237.94zm16.734 30.875 190.33 190.33c9.2596 9.2596 9.2596 24.209 0.00001 33.469l-190.32 190.33c-9.2596 9.2596-24.209 9.2596-33.469 0l-190.33-190.33c-9.2596-9.2596-9.2596-24.209 0-33.469l190.33-190.33c9.2596-9.2597 24.209-9.2596 33.469 0.00002z"
     id="path4" />
  <path
     d="m 131.89403,361.471 11.59917,9.8367 h 211.16463 l 11.71,-9.8367 H 337.0586 307.74938 278.44015 249.13093 219.82171 190.51248 161.20326 Z"
     id="path6"
     sodipodi:nodetypes="cccccccccccc"
     style="stroke-width:1.04239" />
  <path
     id="Unnamed"
     fill="none"
     stroke="black"
     stroke-width="2.08932"
     d="m 191.974,316.0654 c -6.16349,10.13321 -14.75061,20.28732 -14.75061,20.28732 0,0 -3.11309,4.78454 -2.48629,9.40193 0.62679,4.13685 6.18439,11.57486 8.98409,11.1152 4.22042,-0.56411 6.47689,2.69523 4.47115,7.52157 -7.04677,5.43014 -18.86064,-1.17303 -24.23615,-5.47402 -3.42648,-2.73702 -7.62602,-4.55473 -6.93655,-10.46751 0.45965,-2.8206 3.42648,-3.99061 5.11884,-7.41708 1.2536,-1.48344 0.35518,-8.31552 5.91279,-21.85432 1.88039,-4.82635 5.80831,-8.52444 7.75138,-13.10007 1.29538,-3.11308 0.50142,-7.33352 0.79394,-11.28235 0.25072,-3.42647 -5.70385,-2.96681 -5.80831,-10.23765 0.45965,-4.90992 3.76077,-9.77804 4.42936,-16.19227 0.45965,-2.19379 0.68948,-4.86812 -0.45965,-6.70672 -1.58789,-3.76077 -4.30401,-3.28024 -5.68296,-5.36957 -1.5043,-2.25646 -1.19091,-4.86812 -3.63542,-6.37243 -2.69523,-1.65056 -6.41423,-0.77305 -8.98408,-1.8177 -3.00863,-1.21183 -4.42937,-3.63542 -4.42937,-6.4978 0,-9.25568 1.44164,-17.8219 3.73988,-26.40903 0.96109,-3.57274 8.23193,-0.96109 9.44374,-4.32489 2.86238,-7.93943 6.62316,-19.03374 13.8731,-26.09564 6.7903,-6.56049 17.63388,-8.08568 19.01284,-14.12383 0.68948,-4.78454 -2.71612,-7.75139 -5.70385,-10.92714 -2.54897,-2.73703 -4.53382,-5.11886 -4.53382,-5.11886 -0.57449,-0.40131 -0.6144,0.20946 -1.05344,-0.25672 -3.4927,-4.38141 -3.10339,-9.64741 -1.25028,-14.10363 2.43722,-5.74813 7.45676,-11.84267 13.19005,-16.43878 11.4666,-9.19221 25.78828,-12.39072 28.01685,5.16316 2.08931,4.42935 10.30035,2.31913 10.80178,4.68007 0.75216,2.96684 -4.32488,3.82346 -7.0619,5.5576 -1.42073,0.87751 -1.81771,3.09219 -1.81771,3.09219 0,0 3.21755,11.44949 -0.2925,19.20088 -7.04103,13.01648 -12.20166,9.08856 -12.0554,15.04312 0.18805,7.79319 8.77516,4.99347 15.56545,20.12019 2.73703,4.01149 4.86814,13.78951 8.79606,20.18285 3.61452,5.89187 8.69157,6.87387 12.59862,13.53879 2.04753,2.96685 3.23845,5.97548 4.97257,8.14837 3.6981,4.6383 7.14549,6.91567 7.14549,6.91567 0,0 3.00862,-6.56049 8.44086,-12.13899 4.63829,-4.76365 12.84933,-7.98119 13.43434,-14.81327 0.71036,-2.77882 -3.32201,-6.43511 -7.52155,-9.10947 -2.36093,-1.5043 -5.22332,-1.94305 -6.18439,-3.59362 -0.71038,-1.19091 3.32202,-3.34293 3.57273,-4.49204 -3.99062,-8.54534 -3.40561,-15.94154 1.71325,-22.66914 9.5064,-12.57772 23.37951,-7.35444 23.37951,-7.35444 0,0 7.27085,-4.49203 9.02589,-3.57273 2.56987,1.35807 0.68946,4.3458 3.0295,6.24706 0,0 8.0648,1.37895 9.27659,5.76654 0.89842,4.82633 -4.8472,5.68297 -4.8472,5.68297 0,0 0.71035,3.76076 0.94018,8.64979 0,0 2.29826,0.18802 2.36093,1.14912 0,1.25359 -2.29825,1.12823 -2.29825,1.12823 0.0209,4.19954 -0.39697,8.85874 -1.94306,12.55682 -2.11024,5.87102 -4.84725,8.71248 -6.72764,9.77803 -3.44738,1.9222 -5.57848,-0.73124 -5.474,5.80834 0.0626,1.48341 1.92217,2.98774 3.90702,4.99348 2.92505,2.98772 6.58137,7.02012 8.98409,9.94518 1.98485,2.42359 2.36093,7.31261 4.47113,9.56908 2.23557,2.40272 4.80544,2.63255 7.1246,4.68008 2.71612,2.44451 5.5158,4.6801 8.44087,6.26797 4.30399,2.36094 8.21102,2.82058 11.11519,5.5994 2.82058,2.1311 2.56986,5.82919 2.56986,5.82919 0,0 12.78667,1.46253 5.72476,12.28521 -6.24709,7.52156 -14.89687,0.1044 -13.76866,-4.45024 -0.0417,0.0626 -6.43511,0.0836 -12.45235,-2.73703 -4.76366,-2.27734 -7.9603,-7.08279 -10.57196,-7.20815 -2.27735,-0.10441 0.48054,6.30976 0.79394,9.71535 0.71037,10.00785 12.11806,15.27295 11.88824,22.00056 -0.20893,3.4056 -4.88902,5.78742 -10.57197,7.45889 1.50431,2.82059 1.98485,5.20241 1.73413,7.18727 0.25072,3.9906 -3.28024,23.79738 -1.08645,32.71879 1.39986,4.86813 10.71823,4.30401 13.74776,6.81119 3.23844,2.69523 0.16707,8.31551 0.16707,8.31551 l -17.90549,1.25359 c 0,0 -8.14836,-1.65057 -10.88536,-6.26796 -1.58789,-2.90418 1.33715,-5.95457 1.33715,-5.95457 0,0 -7.9812,-23.33774 -3.6772,-30.46235 -0.0836,-5.16061 -4.26222,-10.1332 -4.26222,-10.1332 0,0 -1.67146,-0.20893 -3.3638,0.0417 0,0 -1.35805,7.75137 -4.78456,15.21025 -3.11308,6.83209 -8.00211,14.41632 -8.12747,20.43357 0.45967,6.43513 8.44086,8.0648 12.55685,11.49128 2.04752,1.69236 1.73412,5.32778 1.73412,5.32778 l -23.94363,0.45964 c 0,0 -5.47402,-2.34003 -7.04101,-8.2946 -1.23272,-4.47117 2.50719,-7.98123 2.50719,-7.98123 0,0 -0.83574,-8.67067 1.33714,-18.4696 1.21182,-4.99349 5.16064,-11.88826 5.16064,-11.88826 -0.31339,-2.11019 -0.87751,-4.13685 -1.75503,-5.99634 -2.27737,-4.32489 -5.59939,2.23558 -10.23767,2.04752 -2.7579,-0.10439 -4.61742,-1.8177 -7.16638,-2.84145 -4.11596,-1.65058 -8.0857,-3.19667 -8.87961,-6.14262 -0.83575,-4.70097 -0.60592,-9.88249 1.71322,-14.12382 2.84149,-5.20242 8.41998,-8.21103 8.41998,-8.21103 0,0 -2.50719,-5.87101 -3.0713,-11.49128 -0.52234,-5.26509 0.91928,-10.27946 1.12823,-10.94805 0,0 -4.17864,-4.6174 -10.27947,-10.13322 -1.81771,-1.65057 -2.40271,0.85662 -6.24706,-2.56985 -6.26797,-4.24133 -9.59,-9.5691 -11.88826,-12.7031 -1.17001,-1.60878 -2.17288,-2.31913 -2.17288,-2.31913 0,0 -4.24135,5.76652 -1.5879,14.4163 1.04466,3.40561 3.57275,6.60228 5.55759,10.572 4.24133,8.41996 8.67071,18.07262 9.9034,24.94649 0.45967,4.88903 -3.42648,5.36956 -4.19953,8.08569 -0.81485,2.84148 1.8177,6.26796 1.8177,6.26796 0,0 1.77593,3.88615 2.56988,10.69733 0.87751,7.47979 0.87751,18.30247 2.90415,27.78799 1.00288,4.76365 0.64769,9.15123 2.25648,13.2463 3.90702,9.04677 15.25205,5.93368 17.36225,10.88539 1.23271,2.82058 -1.25359,4.38756 -1.25359,4.38756 0,0 -15.96243,1.31628 -25.03008,0.31341 -3.6981,-0.41788 -5.93368,-3.76078 -5.93368,-3.76078 0,0 -0.20893,-1.21183 0.0836,-2.75791 0.3552,-2.11021 1.79683,-3.51007 0.22983,-8.6707 -1.75503,-6.76941 -7.0619,-14.79238 -9.23481,-23.90184 -1.19091,-4.99347 0.18804,-8.58711 -1.35806,-13.37165 -1.90129,-5.85012 -5.45313,-10.67646 -7.52155,-15.18939 l -6.83209,0.0209 c -0.41786,-0.85661 -0.96108,-2.56986 -1.35805,-3.322 -0.35519,-0.71039 -0.56413,-0.98199 -1.42075,-1.08647 -1.48342,0.3343 -0.91931,1.60878 -2.38183,3.86525 -1.58787,2.44452 -3.84434,4.74277 -3.84434,4.74277 0,0 -2.54898,8.14835 -6.76942,15.1058 z m 85.99653,-41.6402 c 0,-0.16708 1.33715,-11.28235 1.33715,-11.28235 0,0 -1.96396,-2.737 -3.59362,5.47402 -0.48056,3.63542 -0.41789,5.53671 -0.12536,6.45601 0,0 2.38183,-0.6059 2.38183,-0.64768 z"
     style="display:inline;fill:#000000;fill-opacity:1;stroke:none"
     sodipodi:nodetypes="cccccccccccccccccsccccccccscccccccccccccccccccccccccccccccccccccccccccccccccccccccccccccccccccccccccscccccccccccccccccccccccscccs" />
</svg>
